<?xml version="1.0" standalone="no"?>
<!DOCTYPE svg PUBLIC "-//W3C//DTD SVG 20010904//EN"
 "http://www.w3.org/TR/2001/REC-SVG-20010904/DTD/svg10.dtd">
<svg version="1.0" xmlns="http://www.w3.org/2000/svg"
 width="543.000000pt" height="543.000000pt" viewBox="0 0 543.000000 543.000000"
 preserveAspectRatio="xMidYMid meet">
<metadata>
Created by potrace 1.14, written by Peter Selinger 2001-2017
</metadata>
<g transform="translate(0.000000,543.000000) scale(0.100000,-0.100000)"
fill="#000000" stroke="none">
<path d="M2516 5348 c-142 -27 -303 -143 -375 -270 -10 -20 -24 -44 -30 -54
-17 -31 -51 -154 -51 -186 0 -16 -12 -49 -26 -74 -22 -37 -31 -44 -57 -45 -18
0 -43 -2 -57 -4 -14 -1 -68 -6 -120 -9 -115 -8 -173 -14 -265 -26 -38 -5 -90
-12 -115 -15 -193 -24 -293 -41 -475 -79 -253 -54 -447 -116 -610 -196 -77
-38 -152 -79 -166 -92 -117 -104 -115 -102 -132 -165 l-17 -61 36 -64 c30 -53
50 -73 122 -124 48 -34 105 -70 127 -81 174 -89 501 -190 772 -239 84 -15 153
-31 153 -35 0 -4 -43 -58 -96 -121 -53 -62 -100 -122 -105 -133 -5 -11 -17
-33 -27 -50 -10 -16 -36 -61 -57 -100 -20 -38 -48 -88 -60 -110 -21 -36 -119
-322 -127 -369 -2 -16 8 -23 52 -37 30 -10 70 -18 88 -18 32 -1 36 -6 33 -46
-4 -53 -13 -66 -62 -90 -104 -53 -207 -184 -245 -314 -23 -79 -21 -217 5 -302
58 -184 241 -343 415 -361 26 -3 37 -15 84 -98 57 -98 139 -215 201 -285 60
-67 194 -194 236 -223 22 -15 49 -35 59 -44 25 -23 196 -125 233 -139 l28 -11
-50 -26 c-107 -57 -159 -115 -194 -220 -36 -106 -22 -216 41 -315 61 -96 -27
-87 876 -87 l796 0 38 43 c140 153 126 382 -31 524 -20 18 -44 35 -53 39 -29
9 -21 19 34 45 281 129 553 376 718 649 l45 75 59 -1 c214 -5 418 143 487 353
85 256 -41 543 -285 649 -61 26 -64 30 -70 67 -8 47 1 56 59 58 22 0 63 8 90
17 59 20 59 2 -2 212 -55 191 -177 441 -275 566 -34 43 -64 81 -67 84 -17 14
-62 82 -58 86 6 6 29 10 102 18 123 14 499 97 652 144 201 63 391 156 483 237
36 32 67 59 69 61 2 2 11 32 21 66 17 61 17 64 -3 103 -35 71 -57 94 -154 162
-168 117 -522 243 -848 302 -60 11 -146 27 -190 35 -103 20 -532 72 -655 80
-247 16 -244 16 -267 50 -11 17 -23 57 -27 89 -12 95 -75 246 -122 294 -7 7
-21 23 -31 36 -57 71 -187 146 -296 172 -69 16 -186 18 -261 3z"/>
</g>
</svg>
